# xmcd
#
# Track frame offsets: 
#        150
#        16250
#        35258
#        50575
#        67668
#        87743
#        120250
#        136825
#        153088
#        167695
#        184088
#        199880
#
# Disc length: 2930 seconds
#
# Revision: 0
# Processed by: cddbd v1.5.2PL0 Copyright (c) Steve Scherf et al.
# Submitted via: ExactAudioCopy v1.3
#
DISCID=910b700c
DTITLE=David Gogo - David Gogo
DYEAR=1994
DGENRE=Modern Electric Blues
TTITLE0=Western Coast
TTITLE1=Deep End
TTITLE2=Bullet Proof Vest
TTITLE3=Movin' On
TTITLE4=Somehow
TTITLE5=It's My Own Fault
TTITLE6=Play The Blues
TTITLE7=Learned the Hard Way
TTITLE8=The Slip
TTITLE9=You are Here
TTITLE10=This Time
TTITLE11=Crawling Back to You
EXTD=
EXTT0=
EXTT1=
EXTT2=
EXTT3=
EXTT4=
EXTT5=
EXTT6=
EXTT7=
EXTT8=
EXTT9=
EXTT10=
EXTT11=
PLAYORDER=
